<?xml version="1.0" encoding="UTF-8" standalone="no"?>
<!-- Created with Inkscape (http://www.inkscape.org/) -->

<svg
   version="1.1"
   id="svg2"
   width="186.59081"
   height="30"
   viewBox="0 0 186.59081 30"
   sodipodi:docname="oddeco-manual.pdf"
   xmlns:inkscape="http://www.inkscape.org/namespaces/inkscape"
   xmlns:sodipodi="http://sodipodi.sourceforge.net/DTD/sodipodi-0.dtd"
   xmlns="http://www.w3.org/2000/svg"
   xmlns:svg="http://www.w3.org/2000/svg">
  <defs
     id="defs6" />
  <sodipodi:namedview
     id="namedview4"
     pagecolor="#505050"
     bordercolor="#eeeeee"
     borderopacity="1"
     inkscape:showpageshadow="0"
     inkscape:pageopacity="0"
     inkscape:pagecheckerboard="0"
     inkscape:deskcolor="#505050"
     showgrid="false" />
  <g
     id="g80"
     inkscape:groupmode="layer"
     inkscape:label="Page 5"
     transform="matrix(1.3333333,0,0,-1.3333333,-898.95896,478.42651)">
    <g
       id="g82">
      <path
         d="m 805.06164,358.8199 3.50798,-6.07601 -3.6112,-2.08499 -2.30421,3.99146 h -2.96364 l -2.30444,-3.99146 -3.61086,2.08499 3.50787,6.07601 z m 5.59286,-9.68743 3.50787,-6.07612 -3.88903,-6.73645 h -7.01607 v 4.16954 h 4.60865 l 1.48193,2.56691 -2.30443,3.99112 z M 799.08728,336.3199 h -7.01573 l -3.88948,6.73645 3.50787,6.07612 3.6112,-2.08466 -2.30421,-3.99146 1.48204,-2.56691 h 4.60831 z m 2.08533,4.33642 4.64104,8.03896 h -9.28252 z m -27.40743,2.13733 c -2.70352,0 -4.5489,2.22386 -4.5489,4.77608 v 0.0505 c 0,2.55256 1.79428,4.7262 4.49836,4.7262 2.70453,0 4.52358,-2.19875 4.52358,-4.77675 v -0.0502 c 0,-2.5529 -1.79428,-4.72587 -4.47304,-4.72587 z m -0.0505,-4.42282 c 5.45882,0 9.55317,4.11911 9.55317,9.1989 v 0.0505 c 0,5.08013 -4.04346,9.14869 -9.50263,9.14869 -5.45848,0 -9.55283,-4.11877 -9.55283,-9.19924 v -0.0502 c 0,-5.08013 4.04391,-9.14869 9.50229,-9.14869 z m -17.45775,0 c 3.89228,0 6.14123,1.6933 7.8091,3.99302 l -3.68999,2.62855 c -1.0611,-1.28894 -2.14753,-2.14854 -3.99303,-2.14854 -2.47635,0 -4.21975,2.07289 -4.21975,4.72587 v 0.0505 c 0,2.578 1.7434,4.70076 4.21975,4.70076 1.69331,0 2.85639,-0.83393 3.86695,-2.07255 l 3.69021,2.85628 c -1.56711,2.14753 -3.89228,3.6642 -7.50628,3.6642 -5.3574,0 -9.30022,-4.04346 -9.30022,-9.19924 v -0.0502 c 0,-5.28208 4.06924,-9.14869 9.12326,-9.14869 z m -24.40747,0.35392 h 14.35435 v 4.17022 h -9.50229 v 2.80461 h 8.4914 v 3.86683 h -8.4914 v 2.70375 h 9.37609 v 4.14455 h -14.22815 z m -11.56947,13.36912 c 2.95704,0 4.9025,-1.66786 4.9025,-4.4987 v -0.0505 c 0,-2.85538 -1.94546,-4.47337 -4.9025,-4.47337 h -1.99701 v 9.02261 z m -6.89918,-13.36912 h 6.74766 c 6.34319,0 10.05794,3.79096 10.05794,8.89553 v 0.0504 c 0,5.10524 -3.66454,8.744 -9.9573,8.744 h -6.8483 z m -11.56946,13.36912 c 2.95703,0 4.90317,-1.66786 4.90317,-4.4987 v -0.0505 c 0,-2.85538 -1.94614,-4.47337 -4.90317,-4.47337 h -1.99634 v 9.02261 z m -6.89951,-13.36912 h 6.74765 c 6.34353,0 10.05851,3.79096 10.05851,8.89553 v 0.0504 c 0,5.10524 -3.66477,8.744 -9.95786,8.744 h -6.8483 z m -11.13967,4.0689 c -2.70442,0 -4.54891,2.22386 -4.54891,4.77608 v 0.0505 c 0,2.55256 1.79395,4.7262 4.49837,4.7262 2.70386,0 4.52358,-2.19875 4.52358,-4.77675 v -0.0502 c 0,-2.5529 -1.79428,-4.72587 -4.47304,-4.72587 z m -0.0505,-4.42282 c 5.45849,0 9.55283,4.11911 9.55283,9.1989 v 0.0505 c 0,5.08013 -4.0438,9.14869 -9.50229,9.14869 -5.45849,0 -9.55283,-4.11877 -9.55283,-9.19924 v -0.0502 c 0,-5.08013 4.04357,-9.14869 9.50229,-9.14869"
         style="fill:#ffffff;fill-opacity:1;fill-rule:nonzero;stroke:none;stroke-width:1.12072"
         id="path116" />
    </g>
  </g>
</svg>
